<?xml version="1.0" encoding="UTF-8"?>
<svg width="110px" height="24px" viewBox="0 0 110 24" version="1.1" xmlns="http://www.w3.org/2000/svg" xmlns:xlink="http://www.w3.org/1999/xlink">
    <!-- Generator: Sketch 51.2 (57519) - http://www.bohemiancoding.com/sketch -->
    <title>ALVEO</title>
    <desc>Created with Sketch.</desc>
    <defs></defs>
    <g id="Web" stroke="none" stroke-width="1" fill="none" fill-rule="evenodd">
        <g id="1-Homepage" transform="translate(-665.000000, -50.000000)" fill="#FFFFFF">
            <path d="M696.299316,51 L696.299316,69.762207 L702.728027,69.762207 L702.728027,72.8632812 L693,72.8632812 L693,51 L696.299316,51 Z M709.61084,50 L715.657227,65.1513672 L721.788574,50 L725.399414,50 L715.586426,73.5058594 L706,50 L709.61084,50 Z M744.064453,54.1010742 L735.299316,54.1010742 L735.299316,59.3544922 L743.80957,59.3544922 L743.80957,62.4555664 L735.299316,62.4555664 L735.299316,69.762207 L744.064453,69.762207 L744.064453,72.8632812 L732,72.8632812 L732,51 L744.064453,51 L744.064453,54.1010742 Z M752,62.2431641 C752,59.1656747 753.128081,56.522472 755.384277,54.3134766 C757.631033,52.1044811 760.330876,51 763.483887,51 C766.599137,51 769.270659,52.1139212 771.498535,54.3417969 C773.735851,56.5696726 774.854492,59.2459154 774.854492,62.3706055 C774.854492,65.5141759 773.731131,68.1809786 771.484375,70.3710938 C769.228179,72.570649 766.504736,73.6704102 763.313965,73.6704102 C760.49136,73.6704102 757.956717,72.6933691 755.709961,70.7392578 C753.236641,68.5774631 752,65.7454602 752,62.2431641 Z M755,62.1845703 C755,59.8811734 755.783521,57.9459714 757.350586,56.3789062 C758.917651,54.7929608 760.838693,54 763.11377,54 C765.398286,54 767.314608,54.7929608 768.862793,56.3789062 C770.420418,57.9554115 771.199219,59.9094935 771.199219,62.2412109 C771.199219,64.5446079 770.410978,66.4986899 768.834473,68.1035156 C767.257967,69.6894611 765.322765,70.4824219 763.028809,70.4824219 C760.914215,70.4824219 759.049813,69.7036211 757.435547,68.1459961 C755.811841,66.5883711 755,64.6012491 755,62.1845703 Z M668.61084,73.5058594 L665,73.5058594 L675.586426,50 L686.399414,73.5058594 L682.788574,73.5058594 L675.657227,58.3544922 L668.61084,73.5058594 Z" id="ALVEO"></path>
        </g>
    </g>
</svg>